<svg width="47" height="45" viewBox="0 0 47 45" fill="none" xmlns="http://www.w3.org/2000/svg">
<path d="M7.8335 34.238V30.488H11.7502V17.363C11.7502 14.7693 12.5661 12.4646 14.1981 10.449C15.83 8.43335 17.9516 7.11304 20.5627 6.48804V5.17554C20.5627 4.39429 20.8483 3.73022 21.4194 3.18335C21.9906 2.63647 22.6842 2.36304 23.5002 2.36304C24.3161 2.36304 25.0097 2.63647 25.5809 3.18335C26.1521 3.73022 26.4377 4.39429 26.4377 5.17554V6.48804C29.0488 7.11304 31.1703 8.43335 32.8022 10.449C34.4342 12.4646 35.2502 14.7693 35.2502 17.363V30.488H39.1668V34.238H7.8335ZM23.5002 39.863C22.4231 39.863 21.501 39.4958 20.734 38.7615C19.967 38.0271 19.5835 37.1443 19.5835 36.113H27.4168C27.4168 37.1443 27.0333 38.0271 26.2663 38.7615C25.4993 39.4958 24.5772 39.863 23.5002 39.863ZM15.6668 30.488H31.3335V17.363C31.3335 15.3005 30.5665 13.5349 29.0325 12.0662C27.4984 10.5974 25.6543 9.86304 23.5002 9.86304C21.346 9.86304 19.5019 10.5974 17.9679 12.0662C16.4338 13.5349 15.6668 15.3005 15.6668 17.363V30.488Z" fill="#F5F5F5"/>
</svg>
